<svg width="102" height="41" viewBox="0 0 102 41" fill="none" xmlns="http://www.w3.org/2000/svg">
<path d="M41.0264 13.5938V16.5264H38.2842V22.8613C38.2842 23.3184 38.373 23.6357 38.5508 23.8135C38.737 23.9827 39.084 24.0674 39.5918 24.0674H41.0264V27H38.8428C37.3701 27 36.2826 26.7122 35.5801 26.1367C34.8861 25.5612 34.5391 24.6641 34.5391 23.4453V16.5264H32.2285V13.5938H34.5391V9.9375H38.2842V13.5938H41.0264ZM48.834 27.3047C47.4798 27.3047 46.2992 27.0042 45.292 26.4033C44.2933 25.8024 43.5146 24.9772 42.9561 23.9277C42.4059 22.8698 42.1309 21.6637 42.1309 20.3096C42.1309 18.9469 42.4102 17.7367 42.9688 16.6787C43.5358 15.6208 44.3145 14.7913 45.3047 14.1904C46.2949 13.5895 47.429 13.2891 48.707 13.2891C50.0273 13.2891 51.1784 13.5853 52.1602 14.1777C53.1504 14.7617 53.9206 15.5785 54.4707 16.6279C55.0293 17.6689 55.3086 18.8708 55.3086 20.2334V21.2363H45.7744C45.8083 22.2266 46.1003 23.0179 46.6504 23.6104C47.2005 24.2028 47.9665 24.499 48.9482 24.499C49.6761 24.499 50.2812 24.3424 50.7637 24.0293C51.2546 23.7161 51.5846 23.3014 51.7539 22.7852H55.1689C55.0081 23.6738 54.6315 24.4567 54.0391 25.1338C53.4466 25.8109 52.7018 26.3441 51.8047 26.7334C50.9076 27.1143 49.9173 27.3047 48.834 27.3047ZM45.7998 18.8496H51.7793C51.6862 18.0117 51.373 17.3516 50.8398 16.8691C50.3151 16.3783 49.6296 16.1328 48.7832 16.1328C47.9453 16.1328 47.264 16.3783 46.7393 16.8691C46.2145 17.3516 45.9014 18.0117 45.7998 18.8496ZM57.3145 27V13.5938H60.9199V15.8789H60.958C61.2035 15.0749 61.5885 14.4782 62.1133 14.0889C62.638 13.6995 63.3447 13.5049 64.2334 13.5049C64.4535 13.5049 64.6523 13.5091 64.8301 13.5176C65.0163 13.526 65.1855 13.5303 65.3379 13.5303V16.7168C65.2025 16.7083 64.9782 16.6956 64.665 16.6787C64.3519 16.6618 64.0387 16.6533 63.7256 16.6533C62.9554 16.6533 62.3164 16.9157 61.8086 17.4404C61.3092 17.9652 61.0596 18.7311 61.0596 19.7383V27H57.3145ZM67.2168 27V13.5938H70.8223V15.8789H70.8604C71.1058 15.0749 71.4909 14.4782 72.0156 14.0889C72.5404 13.6995 73.2471 13.5049 74.1357 13.5049C74.3558 13.5049 74.5547 13.5091 74.7324 13.5176C74.9186 13.526 75.0879 13.5303 75.2402 13.5303V16.7168C75.1048 16.7083 74.8805 16.6956 74.5674 16.6787C74.2542 16.6618 73.9411 16.6533 73.6279 16.6533C72.8577 16.6533 72.2188 16.9157 71.7109 17.4404C71.2116 17.9652 70.9619 18.7311 70.9619 19.7383V27H67.2168ZM77.627 32.3066V29.3486H79.3281C79.7767 29.3486 80.1068 29.2386 80.3184 29.0186C80.5384 28.807 80.7373 28.443 80.915 27.9268L81.2832 26.9492L76.1289 13.5938H80.0518L82.2988 20.2207C82.4512 20.7031 82.5993 21.1855 82.7432 21.668C82.8955 22.1504 83.0436 22.6328 83.1875 23.1152C83.3314 22.6328 83.4795 22.1504 83.6318 21.668C83.7842 21.1771 83.9365 20.6947 84.0889 20.2207L86.3486 13.5938H90.2334L84.3301 29.0693C83.9069 30.1865 83.3568 31.0033 82.6797 31.5195C82.0026 32.0443 81.1436 32.3066 80.1025 32.3066H77.627Z" fill="white"/>
<path d="M22.7902 9.97312C23.37 9.03556 24.8179 9.58844 24.6253 10.6738L23.1157 19.1792C23.0764 19.4009 23.113 19.6293 23.2196 19.8276L27.3106 27.4358C27.8326 28.4067 26.6298 29.3842 25.7862 28.6747L19.1751 23.1147C19.0028 22.9698 18.7867 22.8873 18.5617 22.8805L9.92727 22.6192C8.82542 22.5859 8.58025 21.0555 9.61654 20.6796L17.7372 17.7342C17.9488 17.6575 18.1284 17.5116 18.2468 17.3201L22.7902 9.97312Z" fill="#00E0FF"/>
</svg>
