<svg width="71" height="22" viewBox="0 0 71 22" fill="none" xmlns="http://www.w3.org/2000/svg">
<path d="M34.8647 12.5094L35.4847 15.3745H35.5329L36.2253 12.5335L38.2322 4.67871H40.6685L37.4215 16.6164H33.5041L31.8806 9.42971L31.2825 6.56465H31.2343L30.6142 9.42971L28.9907 16.6164H25.1697L21.9227 4.67871H24.4292L26.412 12.5094L27.1043 15.3504H27.1525L27.7726 12.4853L29.5626 4.67871H33.0484L34.8625 12.5094H34.8647Z" fill="#DADADA"/>
<path d="M42.1014 2.57811V0H44.7043V2.57811H42.1014ZM42.1978 16.6164H44.6342V4.67871H42.1978V16.6164Z" fill="#DADADA"/>
<path d="M47.2129 4.6787H49.601V6.82749C50.3898 5.46724 51.5597 4.43994 53.422 4.43994C55.762 4.43994 57.506 6.06303 57.506 9.02447V16.6164H55.0696V9.21503C55.0696 7.44737 54.1144 6.51645 52.515 6.51645C50.9156 6.51645 49.6492 7.49556 49.6492 9.81082V16.6142H47.2129V4.6787Z" fill="#DADADA"/>
<path d="M59.87 17.451H62.2822C62.4247 18.7652 63.5004 19.5998 65.3627 19.5998C67.4156 19.5998 68.5637 18.5966 68.5637 16.3536V14.2771C67.7049 15.7337 66.4144 16.5441 64.6704 16.5441C61.7805 16.5441 59.537 14.3713 59.537 10.503C59.537 6.63473 61.7827 4.43994 64.6704 4.43994C66.4144 4.43994 67.7268 5.27668 68.5878 6.7552V4.6787H71V16.209C71 19.5998 68.8989 21.5339 65.3167 21.5339C62.0938 21.5339 60.111 19.959 59.8722 17.451H59.87ZM65.3145 14.5158C67.3674 14.5158 68.5615 13.1315 68.5615 10.9827V10.0277C68.5615 7.83069 67.3674 6.42226 65.3145 6.42226C63.2616 6.42226 62.0434 7.75841 62.0434 10.1941V10.814C62.0434 13.2016 63.3098 14.5136 65.3145 14.5136V14.5158Z" fill="#DADADA"/>
<path d="M14.6794 4.67875C13.6781 4.67875 12.7952 5.20445 12.0568 6.24489C11.2965 7.32038 10.7422 8.84929 10.2076 10.3278C10.028 10.8228 9.84833 11.3223 9.65991 11.802C9.47148 11.3201 9.28964 10.8207 9.10998 10.3234C8.57539 8.84491 8.02327 7.316 7.26301 6.24051C6.52465 5.20226 5.6417 4.67437 4.64044 4.67437H0V6.4026C0.27606 6.4026 0.705486 6.49022 1.24446 7.25248C1.86888 8.13522 2.38156 9.55022 2.87672 10.9236C3.34339 12.2116 3.82321 13.5455 4.44325 14.5706C5.2539 15.9177 6.20478 16.5705 7.34845 16.5705C8.39135 16.5705 9.14722 15.9966 9.65991 15.4052C10.1726 15.9966 10.9285 16.5705 11.9714 16.5705C13.115 16.5705 14.0637 15.9155 14.8766 14.5706C15.4944 13.5455 15.9764 12.2116 16.4431 10.9192C16.9382 9.55022 17.4487 8.13522 18.0732 7.25248C18.6143 6.49022 19.0438 6.4026 19.3198 6.4026V4.67218H14.6794V4.67875ZM7.34845 14.8488C6.10399 14.8488 5.23637 12.4481 4.46954 10.3278C3.96124 8.92376 3.4376 7.47152 2.73212 6.40917H4.63824C4.9143 6.40917 5.34373 6.49679 5.8849 7.25905C6.50932 8.14179 7.022 9.55679 7.51716 10.928C7.87866 11.9312 8.25331 12.9629 8.69151 13.8544C8.11309 14.7371 7.65519 14.8488 7.34845 14.8488ZM14.8481 10.3322C14.0834 12.4503 13.2158 14.8488 11.9714 14.8488C11.6646 14.8488 11.2067 14.7371 10.6283 13.8544C11.0665 12.9629 11.439 11.9312 11.8027 10.9258C12.2978 9.55679 12.8083 8.14179 13.4327 7.25905C13.9739 6.49679 14.4033 6.40917 14.6794 6.40917H16.5855C15.8822 7.47152 15.3564 8.92376 14.8481 10.3322Z" fill="#DADADA"/>
</svg>
