<?xml version="1.0" encoding="utf-8"?>
<!-- Generator: Adobe Illustrator 28.3.0, SVG Export Plug-In . SVG Version: 6.00 Build 0)  -->
<svg version="1.1" id="Layer_1" xmlns="http://www.w3.org/2000/svg" xmlns:xlink="http://www.w3.org/1999/xlink" x="0px" y="0px"
	 viewBox="0 0 2500 2500" style="enable-background:new 0 0 2500 2500;" xml:space="preserve">
<style type="text/css">
	.st0{fill:#C92D69;}
</style>
<path class="st0" d="M1064.5,1738.5h91.7v-63h-91.7V1738.5z M1218.8,1738.5h93.8v-63h-93.8V1738.5z M843.8,457.2L437.5,658.8v1253.5
	l406.2,137.4V457.2z M906.2,856v819.4h93.8v63h-93.8v355c0,10.1-4.8,19.7-13,25.6c-5.4,3.9-11.8,5.9-18.3,5.9
	c-3.3,0-6.7-0.5-9.9-1.6l-468.8-158.5c-12.8-4.3-21.3-16.4-21.3-29.9V639.2c0-12,6.8-23,17.5-28.3l468.8-232.7
	c9.7-4.8,21.1-4.3,30.3,1.5c9.2,5.7,14.8,15.9,14.8,26.8V793h93.8v63H906.2z M1375,1738.5h93.8v-63H1375V1738.5z M1377,856h91.7v-63
	H1377V856z M1220.8,856h91.7v-63h-91.7V856z M1064.5,856h91.7v-63h-91.7V856z M2062.5,658.8l-406.2-201.6v1592.5l406.2-137.4V658.8z
	 M2125,1935c0,13.5-8.6,25.6-21.3,29.9l-468.8,158.5c-3.3,1.1-6.6,1.6-9.9,1.6c-6.5,0-12.9-2-18.2-5.9c-8.2-5.9-13-15.4-13-25.6
	v-355h-60.5v-63h60.5V856h-60.5v-63h60.5V406.5c0-10.9,5.6-21,14.8-26.8c9.2-5.8,20.6-6.3,30.3-1.5l468.8,232.7
	c10.7,5.3,17.5,16.3,17.5,28.3V1935z M1341.7,1056.5l-58.4-22.6l-156.2,409.7l58.4,22.6L1341.7,1056.5z M1553.3,1256.5
	c12.2-12.3,12.2-32.3,0-44.6l-125-126.1l-44.2,44.6l102.9,103.8L1384.2,1338l44.2,44.6L1553.3,1256.5z M1071.7,1382.6l-125-126.1
	c-12.2-12.3-12.2-32.3,0-44.6l125-126.1l44.2,44.6l-102.9,103.8l102.9,103.8L1071.7,1382.6z"/>
</svg>
