<?xml version="1.0" encoding="utf-8"?>
<!-- Generator: Adobe Illustrator 28.3.0, SVG Export Plug-In . SVG Version: 6.00 Build 0)  -->
<svg version="1.1" id="Layer_1" xmlns="http://www.w3.org/2000/svg" xmlns:xlink="http://www.w3.org/1999/xlink" x="0px" y="0px"
	 viewBox="0 0 2500 2500" style="enable-background:new 0 0 2500 2500;" xml:space="preserve">
<style type="text/css">
	.st0{clip-path:url(#SVGID_00000146458106586483101230000000727649195017921181_);}
	.st1{fill:#3B48CC;}
	.st2{fill:#FFFFFF;}
</style>
<g>
	<defs>
		<rect id="SVGID_1_" width="2500" height="2500"/>
	</defs>
	<clipPath id="SVGID_00000065787141548332106540000008180796921218768543_">
		<use xlink:href="#SVGID_1_"  style="overflow:visible;"/>
	</clipPath>
	<g style="clip-path:url(#SVGID_00000065787141548332106540000008180796921218768543_);">
		<path class="st1" d="M2500,0H0v2500h2500V0z"/>
		<path class="st2" d="M846,984.3c-258.3,0-533.3-78.3-533.3-223.3S587,537.7,846,537.7S1379.3,616,1379.3,761S1104,984.3,846,984.3
			z M846,604.3c-266.7,0-466.7,82.7-466.7,156.7s200,156.7,466.7,156.7S1312.7,835,1312.7,761S1112.3,604.3,846,604.3z"/>
		<path class="st2" d="M1380.3,771h-66.7v566.7h66.7V771z"/>
		<path class="st2" d="M845.7,2066.7c-258,0-533.3-77.3-533.3-221V771H379v1075.3c0,73.3,200,155,466.7,155
			c266.7,0,466.7-81.7,466.7-155v-108.7h66.7v108.7C1380.3,1990,1104,2066.7,845.7,2066.7z"/>
		<path class="st2" d="M846,1361c-258,0-533.3-78.3-533.3-223.3h66.7c0,74,200,156.7,466.7,156.7s466.7-82.7,466.7-156.7h66.7
			C1378.7,1282.7,1104.3,1361,846,1361z"/>
		<path class="st2" d="M848.3,1727.7c-258,0-533.3-78.3-533.3-223.3h66.7c0,74,200,156.7,466.7,156.7c109.1,1.5,217.8-14.3,322-46.7
			l21.3,63C1080.6,1712.1,964.7,1729.1,848.3,1727.7z"/>
		<path class="st2" d="M1628.3,2095.7c-8.8,0-17.3-3.5-23.6-9.8c-6.2-6.2-9.8-14.7-9.8-23.6c0-229-261.7-491.3-491.7-491.3
			c-8.8,0-17.3-3.5-23.6-9.8c-6.2-6.3-9.8-14.7-9.8-23.6s3.5-17.3,9.8-23.6c6.3-6.3,14.7-9.8,23.6-9.8
			c229.7,0,491.7-262,491.7-491.7c0-8.8,3.5-17.3,9.8-23.6c6.3-6.3,14.7-9.8,23.6-9.8s17.3,3.5,23.6,9.8c6.3,6.2,9.8,14.7,9.8,23.6
			c0,229.7,261.7,491.7,491.7,491.7c8.8,0,17.3,3.5,23.6,9.8c6.3,6.2,9.8,14.7,9.8,23.6s-3.5,17.3-9.8,23.6
			c-6.2,6.2-14.7,9.8-23.6,9.8c-230,0-491.7,261.7-491.7,491.3c0,8.8-3.5,17.3-9.8,23.6C1645.7,2092.2,1637.2,2095.7,1628.3,2095.7z
			 M1266.7,1537.7c162.9,69.4,292.6,199.3,361.7,362.3c69.2-163.3,199.3-293.3,362.7-362.3c-163.4-69.2-293.5-199.3-362.7-362.7
			C1559.2,1338.1,1429.6,1468.1,1266.7,1537.7z"/>
		<path class="st2" d="M1847,737.7h-66.7v200h66.7V737.7z"/>
		<path class="st2" d="M1913.7,804.3h-200V871h200V804.3z"/>
		<path class="st2" d="M1480.3,404.3h-66.7v200h66.7V404.3z"/>
		<path class="st2" d="M1547,471h-200v66.7h200V471z"/>
	</g>
</g>
</svg>
