<?xml version="1.0" encoding="utf-8"?>
<!-- Generator: Adobe Illustrator 28.3.0, SVG Export Plug-In . SVG Version: 6.00 Build 0)  -->
<svg version="1.1" id="Layer_1" xmlns="http://www.w3.org/2000/svg" xmlns:xlink="http://www.w3.org/1999/xlink" x="0px" y="0px"
	 viewBox="0 0 2500 2500" style="enable-background:new 0 0 2500 2500;" xml:space="preserve">
<style type="text/css">
	.st0{fill-rule:evenodd;clip-rule:evenodd;fill:#EF8E35;}
	.st1{fill-rule:evenodd;clip-rule:evenodd;fill:#FFFFFF;}
</style>
<g>
	<path class="st0" d="M0,0h2500v2500H0V0z"/>
	<path class="st1" d="M875.2,2062.5H487.2l429.2-897l194.4,400.3L875.2,2062.5z M944.4,1079.8c-5.3-10.8-16.2-17.6-28.2-17.6h-0.1
		c-12,0-23,6.9-28.2,17.8L409.3,2080.3c-7.4,15.6-0.8,34.2,14.7,41.7c4.2,2,8.8,3.1,13.5,3.1h457.5c12.1,0,23.1-7,28.3-17.9
		l250.5-528.1c4.1-8.5,4-18.5-0.2-27L944.4,1079.8z M2031.1,2062.5h-385.5L1027.1,767.8c-5.2-10.9-16.2-17.8-28.3-17.8H746.6
		l0.3-312.5h494.4l615.7,1294.7c5.2,10.9,16.2,17.8,28.3,17.8h145.9L2031.1,2062.5z M2062.4,1687.5H1905L1289.4,392.8
		c-5.2-10.9-16.2-17.9-28.3-17.8H715.6c-17.3,0-31.3,14-31.3,31.2l-0.3,375c0,17.3,14,31.3,31.2,31.3c0,0,0,0,0.1,0H979
		l618.5,1294.7c5.2,10.9,16.2,17.8,28.2,17.8h436.6c17.3,0.1,31.3-13.9,31.3-31.2c0,0,0-0.1,0-0.1v-375
		C2093.8,1701.5,2079.8,1687.5,2062.4,1687.5C2062.5,1687.5,2062.5,1687.5,2062.4,1687.5z"/>
</g>
</svg>
