<?xml version="1.0" encoding="utf-8"?>
<!-- Generator: Adobe Illustrator 28.3.0, SVG Export Plug-In . SVG Version: 6.00 Build 0)  -->
<svg version="1.1" id="Layer_1" xmlns="http://www.w3.org/2000/svg" xmlns:xlink="http://www.w3.org/1999/xlink" x="0px" y="0px"
	 viewBox="0 0 2500 2500" style="enable-background:new 0 0 2500 2500;" xml:space="preserve">
<style type="text/css">
	.st0{fill-rule:evenodd;clip-rule:evenodd;fill:#249B21;}
	.st1{fill-rule:evenodd;clip-rule:evenodd;fill:#FFFFFF;}
</style>
<path class="st0" d="M0,0h2500v2500H0V0z"/>
<path class="st1" d="M1901.1,1340.4l12-84.5c110.6,66.2,112.1,93.7,112.1,94.4C2025,1350.5,2006.1,1366.2,1901.1,1340.4z
	 M1840.4,1323.5c-191.2-57.9-457.6-180.1-565.4-231c0-0.4,0.1-0.8,0.1-1.3c-0.1-41.5-33.7-75.1-75.1-75.1
	c-41.4,0-75.1,33.7-75.1,75.1c0,41.4,33.7,75.1,75.1,75.1c18.2,0,34.7-6.8,47.7-17.6c126.8,60,391.1,180.4,583.8,237.3l-76.2,537.7
	c-0.2,1.4-0.3,2.9-0.3,4.4c0,47.4-209.6,134.3-552.1,134.3c-346.1,0-557.9-87-557.9-134.3c0-1.4-0.1-2.8-0.3-4.2L485.6,761.2
	c137.8,94.8,434.1,145,717.6,145c283,0,578.8-50,716.9-144.5L1840.4,1323.5z M468.8,639.9c2.2-41.1,238.6-202.4,734.4-202.4
	c495.8,0,732.1,161.2,734.4,202.4v14c-27.2,92.2-333.4,189.8-734.4,189.8c-401.6,0-708-97.9-734.4-190.2V639.9z M2000,640.6
	c0-108.3-310.4-265.6-796.9-265.6S406.2,532.3,406.2,640.6l2.9,23.6l173.4,1266.4c4.2,141.6,381.8,194.4,620.4,194.4
	c296,0,610.5-68.1,614.5-194.4l74.9-528c41.7,10,75.9,15.1,103.4,15.1c37,0,62-9.1,77.2-27.1c12.3-14.3,17.3-33.4,13.6-51.9
	c-8.1-43.2-59.4-89.8-164-149.5l74.2-523.8L2000,640.6z"/>
</svg>
