<?xml version="1.0" encoding="utf-8"?>
<!-- Generator: Adobe Illustrator 28.3.0, SVG Export Plug-In . SVG Version: 6.00 Build 0)  -->
<svg version="1.1" id="Layer_1" xmlns="http://www.w3.org/2000/svg" xmlns:xlink="http://www.w3.org/1999/xlink" x="0px" y="0px"
	 viewBox="0 0 2500 2500" style="enable-background:new 0 0 2500 2500;" xml:space="preserve">
<style type="text/css">
	.st0{clip-path:url(#SVGID_00000153695973372984951740000005751242312749328261_);}
	.st1{fill:#D32F7A;}
	.st2{fill:#FFFFFF;}
</style>
<g>
	<g>
		<defs>
			<rect id="SVGID_1_" width="2500" height="2500"/>
		</defs>
		<clipPath id="SVGID_00000058549735704124485920000011757633310456210329_">
			<use xlink:href="#SVGID_1_"  style="overflow:visible;"/>
		</clipPath>
		<g style="clip-path:url(#SVGID_00000058549735704124485920000011757633310456210329_);">
			<path class="st1" d="M2500,0H0v2500h2500V0z"/>
			<path class="st2" d="M1819.3,1697.3v27.7c0-3.3,0-6.7,0-10C1818.7,1709.1,1818.7,1703.2,1819.3,1697.3z"/>
			<path class="st2" d="M1381.7,1033.3l-3.3,6.3c1.3-2.1,2.3-4.3,3-6.7L1381.7,1033.3z"/>
			<path class="st2" d="M1092.7,917.7c-29.7,0-291.7-2.3-291.7,96.7c-0.1,6.3,1,12.5,3.3,18.3c1,2.4,2.1,4.7,3.3,7l181.3,400v207
				c0,21,8.7,33.3,27,33.3h8.7c41.9-11,80.8-31.1,114-59l22.3-15.7c4.8-3,8.7-7.1,11.4-12c2.7-4.9,4.2-10.4,4.2-16v-136.7l201.7-400
				c1.3-2.1,2.3-4.3,3-6.7c2.3-5.8,3.4-12.1,3.3-18.3C1384.7,915.3,1122.7,917.7,1092.7,917.7z M1092.7,979
				c117.7,0,193.3,20.7,218.7,35.3c-25.3,14.7-100,35.3-218.7,35.3s-193-20.7-218.3-35.3C900,1000,975,979,1092.7,979z M1117,1412.3
				c0,4.7,0,13,0,21.7v130.3l-13,8c-19,11-35.7,18.7-54.7,28.7v-167.7c-0.1-4.6-1-9.1-2.7-13.3l-142-324.7
				c61.7,13.8,124.8,20.7,188,20.7c61.4,0,122.6-6.5,182.7-19.3L1117,1412.3z"/>
			<path class="st2" d="M1700,1839c-130.5,94.4-287.6,145-448.7,144.3c-362.7,0-672-235.7-744.7-583.3c32.7-1.6,64.1-13.8,89.2-34.8
				s42.8-49.6,50.1-81.6h170v-63H646.7c-6.4-32.8-23.6-62.5-48.9-84.3c-25.2-21.9-57.1-34.7-90.4-36.3
				c29.7-120.5,88.2-232,170.6-324.9c82.3-92.9,186-164.4,302-208.4c116.1-44,241.1-59.2,364.3-44.2s241,59.7,343.1,130.2l38-52.7
				c-113.1-78.1-243.7-127.1-380.2-142.5c-136.6-15.4-274.8,3.2-402.4,54.1C815,562.6,702,644.3,613.6,749.5S464.2,980.2,436,1114.7
				c-25.9,12-47.7,31.1-63.1,55.1c-15.3,24-23.5,51.9-23.5,80.4s8.1,56.4,23.5,80.4c15.3,24,37.2,43.1,63.1,55.1
				c38.8,187.6,141.1,356,289.6,477s334.2,187.1,525.7,187.3c174.5,0.3,344.7-54.6,486-157L1700,1839z M416.7,1250
				c-0.1-20.5,7.2-40.3,20.8-55.7c13.5-15.4,32.2-25.2,52.6-27.7h10c16.5-0.1,32.6,4.8,46.4,13.9c13.7,9.1,24.5,22.1,30.8,37.3
				c6.4,15.2,8.1,32,4.9,48.2c-3.2,16.2-11.1,31.1-22.7,42.8c-11.6,11.7-26.5,19.7-42.7,22.9c-16.2,3.2-32.9,1.6-48.2-4.7
				c-15.2-6.3-28.3-17-37.5-30.7S417,1266.5,417,1250L416.7,1250L416.7,1250z"/>
			<path class="st2" d="M2000,1400c28.3,0,56.1-8,80.1-23.1s43.2-36.7,55.4-62.3c12.2-25.6,16.9-54.1,13.6-82.2
				c-3.3-28.1-14.6-54.8-32.4-76.8c-17.8-22-41.6-38.5-68.4-47.6c-26.8-9.1-55.7-10.4-83.3-3.8c-27.6,6.6-52.7,20.9-72.4,41.3
				c-19.8,20.3-33.3,45.8-39.2,73.6H1680V806.7h90c4.9,37.1,23.5,71.1,52.1,95.2c28.6,24.1,65.3,36.7,102.7,35.1
				c37.4-1.5,72.9-17,99.5-43.3c26.6-26.4,42.4-61.7,44.2-99.1c1.9-37.4-10.3-74.1-34.2-103c-23.9-28.9-57.6-47.8-94.7-53
				s-74.8,3.6-105.7,24.8c-30.9,21.2-52.8,53.1-61.3,89.6l-122.7-1.7c-4.2-0.9-8.6-0.8-12.8,0.3c-4.2,1.1-8,3.1-11.3,6
				c-3.2,2.9-5.8,6.4-7.4,10.4s-2.3,8.3-1.9,12.6V1218h-256.3v61.7h256.3v436c0,8.8,3.5,17.3,9.8,23.6c6.3,6.3,14.7,9.8,23.6,9.8
				h104.7c7.3,36.5,27.9,69,57.9,91.1c29.9,22.1,67,32.4,104,28.7c37-3.7,71.4-21,96.4-48.6s38.8-63.5,38.8-100.7
				s-13.8-73.1-38.8-100.7s-59.3-44.9-96.4-48.6c-37-3.7-74.1,6.5-104,28.7c-29.9,22.1-50.5,54.6-57.9,91.1H1682l-1.7-410.7h173
				c6.8,33.9,25.1,64.4,51.9,86.4C1931.9,1387.7,1965.4,1399.8,2000,1400z M2000,1166.7c16.5,0,32.6,4.9,46.3,14
				c13.7,9.2,24.4,22.2,30.7,37.4c6.3,15.2,8,32,4.7,48.1c-3.2,16.2-11.2,31-22.8,42.7c-11.7,11.7-26.5,19.6-42.7,22.8
				c-16.2,3.2-32.9,1.6-48.1-4.7s-28.2-17-37.4-30.7c-9.2-13.7-14-29.8-14-46.3c0-22.1,8.8-43.3,24.4-58.9
				C1956.7,1175.4,1977.9,1166.7,2000,1166.7z M1916.7,703c16.4,0.1,32.5,5,46.1,14.2s24.2,22.2,30.4,37.4c6.2,15.2,7.8,31.9,4.5,48
				s-11.3,30.9-23,42.4s-26.5,19.4-42.7,22.5c-16.1,3.1-32.8,1.3-48-5.1c-15.1-6.4-28-17.1-37.1-30.9c-9-13.7-13.8-29.8-13.6-46.3
				c0-11,2.2-21.8,6.4-31.9c4.2-10.1,10.4-19.3,18.2-27c7.8-7.7,17-13.8,27.2-17.9s21-6.2,32-6.1L1916.7,703z M1900,1633.3
				c16.1-0.1,31.8,4.5,45.3,13.2s24.2,21,30.9,35.7c6.7,14.6,8.9,30.8,6.6,46.7s-9.2,30.7-19.8,42.8c-10.6,12.1-24.5,20.8-39.9,25.2
				c-15.5,4.4-31.8,4.2-47.2-0.5c-15.3-4.7-29-13.8-39.3-26.1c-10.3-12.3-16.9-27.3-18.9-43.2c0-3.3,0-6.7,0-10
				c0-5.9,0.7-11.9,2-17.7c4-18.5,14.1-35,28.7-47C1862.9,1640.4,1881.1,1633.7,1900,1633.3z"/>
		</g>
	</g>
</g>
</svg>
