<?xml version="1.0" encoding="utf-8"?>
<!-- Generator: Adobe Illustrator 28.3.0, SVG Export Plug-In . SVG Version: 6.00 Build 0)  -->
<svg version="1.1" id="Layer_1" xmlns="http://www.w3.org/2000/svg" xmlns:xlink="http://www.w3.org/1999/xlink" x="0px" y="0px"
	 viewBox="0 0 2500 2500" style="enable-background:new 0 0 2500 2500;" xml:space="preserve">
<style type="text/css">
	.st0{fill:#DB4BAF;}
	.st1{fill:#FFFFFF;}
</style>
<rect x="0" class="st0" width="2500" height="2500"/>
<g>
	<g>
		<path class="st1" d="M454.8,1458.5c-115,0-208.5-93.5-208.5-208.5c0-115,93.5-208.5,208.5-208.5S663.3,1135,663.3,1250
			C663.3,1365,569.8,1458.5,454.8,1458.5z M454.8,1101.5c-81.9,0-148.5,66.6-148.5,148.5s66.6,148.5,148.5,148.5
			s148.5-66.6,148.5-148.5S536.7,1101.5,454.8,1101.5z"/>
	</g>
	<g>
		<path class="st1" d="M529.4,992c4.8-13.4,10-26.7,15.5-39.8c38.5-91.1,93.7-172.9,164-243.2c70.3-70.3,152.1-125.5,243.2-164
			c94.3-39.9,194.5-60.1,297.8-60.1c103.3,0,203.5,20.2,297.8,60.1c91.1,38.5,172.9,93.7,243.2,164c70.3,70.3,125.5,152.1,164,243.2
			c5.6,13.2,10.7,26.4,15.5,39.8c19.4-5.6,39.5-9,60.1-10.1c-6.1-17.9-12.9-35.6-20.3-53.1c-41.6-98.3-101.1-186.5-176.8-262.3
			s-164-135.3-262.3-176.8c-101.7-43-209.8-64.9-321.2-64.9c-111.4,0-219.4,21.8-321.2,64.9c-98.3,41.6-186.5,101.1-262.3,176.8
			s-135.3,164-176.8,262.3c-7.4,17.5-14.2,35.2-20.3,53.1C489.9,983,510,986.4,529.4,992z"/>
		<path class="st1" d="M1955,1547.8c-38.5,91.1-93.7,172.9-164,243.2c-70.3,70.3-152.1,125.5-243.2,164
			c-94.3,39.9-194.5,60.1-297.8,60.1c-103.3,0-203.5-20.2-297.8-60.1c-91.1-38.5-172.9-93.7-243.2-164
			c-70.3-70.3-125.5-152.1-164-243.2c-5.6-13.2-10.7-26.4-15.5-39.8c-19.4,5.6-39.5,9-60.1,10.1c6.1,17.9,12.9,35.6,20.3,53.1
			c41.6,98.3,101.1,186.5,176.8,262.3s164,135.3,262.3,176.8c101.7,43,209.8,64.9,321.2,64.9c111.4,0,219.4-21.8,321.2-64.9
			c98.3-41.6,186.5-101.1,262.3-176.8s135.3-164,176.8-262.3c7.4-17.5,14.2-35.2,20.3-53.1c-20.5-1.1-40.7-4.5-60.1-10.1
			C1965.8,1521.4,1960.6,1534.7,1955,1547.8z"/>
	</g>
	<g>
		<path class="st1" d="M2045.2,1458.5c-115,0-208.5-93.5-208.5-208.5c0-115,93.5-208.5,208.5-208.5s208.5,93.5,208.5,208.5
			C2253.6,1365,2160.1,1458.5,2045.2,1458.5z M2045.2,1101.5c-81.9,0-148.5,66.6-148.5,148.5s66.6,148.5,148.5,148.5
			s148.5-66.6,148.5-148.5S2127,1101.5,2045.2,1101.5z"/>
	</g>
	<g>
		<path class="st1" d="M1521.2,1568.9c-44-44-90.9-77.7-139.4-100.1c-46.9-21.6-95.1-32.6-143.3-32.6c-48.2,0-96.4,11-143.3,32.6
			c-48.4,22.4-95.3,56-139.4,100.1l-42.4-42.4c177-177,177-388.3,0-565.3l42.4-42.4c177,177,388.3,177,565.3,0l42.4,42.4
			c-44,44-77.7,90.9-100.1,139.4c-21.6,46.9-32.6,95.1-32.6,143.3s11,96.4,32.6,143.3c22.4,48.4,56,95.3,100.1,139.4L1521.2,1568.9z
			 M1066,1071.3c26.5,55.9,40.1,114,40.1,172.5s-13.6,116.6-40.1,172.5c55.9-26.5,114-40.1,172.5-40.1c58.6,0,116.6,13.6,172.5,40.1
			c-26.5-55.9-40.1-114-40.1-172.5s13.6-116.6,40.1-172.5c-55.9,26.5-114,40.1-172.5,40.1C1179.9,1111.4,1121.9,1097.7,1066,1071.3z
			"/>
	</g>
	<path class="st1" d="M960.2,1270.1c0.1-0.1,0.1-0.1,0.2-0.2c0.3-0.3,0.5-0.6,0.8-0.9c0.1-0.1,0.1-0.1,0.2-0.2
		c0.3-0.3,0.5-0.6,0.8-1c0,0,0.1-0.1,0.1-0.1c0.3-0.4,0.5-0.7,0.8-1.1c0,0,0,0,0,0c2.7-4,4.4-8.6,4.9-13.7c0-0.1,0-0.1,0-0.2
		c0-0.4,0.1-0.8,0.1-1.3c0-0.5,0-1,0-1.5c0-0.5,0-1,0-1.5c0-0.4-0.1-0.8-0.1-1.2c0-0.1,0-0.1,0-0.2c-0.5-5-2.2-9.6-4.9-13.6
		c0,0,0,0,0-0.1c-0.2-0.3-0.5-0.7-0.7-1c0-0.1-0.1-0.1-0.1-0.2c-0.2-0.3-0.5-0.6-0.7-0.9c-0.1-0.1-0.2-0.2-0.2-0.3
		c-0.2-0.3-0.4-0.5-0.7-0.8c-0.1-0.1-0.2-0.2-0.3-0.3c-0.2-0.3-0.5-0.5-0.8-0.8c-0.1-0.1-0.2-0.2-0.2-0.3l-100-100
		c-11.7-11.7-30.7-11.7-42.4,0c-11.7,11.7-11.7,30.7,0,42.4l48.7,48.7H737.2c-16.6,0-30,13.4-30,30s13.4,30,30,30h128.3l-48.7,48.7
		c-11.7,11.7-11.7,30.7,0,42.4c5.9,5.9,13.5,8.8,21.2,8.8c7.7,0,15.4-2.9,21.2-8.8l99.9-99.9
		C959.5,1270.9,959.8,1270.5,960.2,1270.1z"/>
	<path class="st1" d="M1780,1270.1c0.1-0.1,0.1-0.1,0.2-0.2c0.3-0.3,0.5-0.6,0.8-0.9c0.1-0.1,0.1-0.1,0.2-0.2c0.3-0.3,0.5-0.6,0.8-1
		c0,0,0.1-0.1,0.1-0.1c0.3-0.4,0.5-0.7,0.8-1.1c0,0,0,0,0,0c2.7-4,4.4-8.6,4.9-13.7c0-0.1,0-0.1,0-0.2c0-0.4,0.1-0.8,0.1-1.3
		c0-0.5,0-1,0-1.5c0-0.5,0-1,0-1.5c0-0.4-0.1-0.8-0.1-1.2c0-0.1,0-0.1,0-0.2c-0.5-5-2.2-9.6-4.9-13.6c0,0,0,0,0-0.1
		c-0.2-0.3-0.5-0.7-0.7-1c0-0.1-0.1-0.1-0.1-0.2c-0.2-0.3-0.5-0.6-0.7-0.9c-0.1-0.1-0.2-0.2-0.2-0.3c-0.2-0.3-0.4-0.5-0.7-0.8
		c-0.1-0.1-0.2-0.2-0.3-0.3c-0.2-0.3-0.5-0.5-0.8-0.8c-0.1-0.1-0.2-0.2-0.2-0.3l-100-100c-11.7-11.7-30.7-11.7-42.4,0
		c-11.7,11.7-11.7,30.7,0,42.4l48.7,48.7H1557c-16.6,0-30,13.4-30,30s13.4,30,30,30h128.3l-48.7,48.7c-11.7,11.7-11.7,30.7,0,42.4
		c5.9,5.9,13.5,8.8,21.2,8.8c7.7,0,15.4-2.9,21.2-8.8l99.9-99.9C1779.3,1270.9,1779.6,1270.5,1780,1270.1z"/>
</g>
</svg>
