<?xml version="1.0" encoding="utf-8"?>
<!-- Generator: Adobe Illustrator 28.3.0, SVG Export Plug-In . SVG Version: 6.00 Build 0)  -->
<svg version="1.1" id="Layer_1" xmlns="http://www.w3.org/2000/svg" xmlns:xlink="http://www.w3.org/1999/xlink" x="0px" y="0px"
	 viewBox="0 0 2500 2500" style="enable-background:new 0 0 2500 2500;" xml:space="preserve">
<style type="text/css">
	.st0{fill:#6742DB;}
</style>
<g>
	<path class="st0" d="M1538,2022.3l-59.3-30.7c31.6-60.1,57-123.4,75.7-188.7l64,18.7C1598.4,1891.1,1571.5,1958.3,1538,2022.3z
		 M1600,1412c-11.5-186.6-72.1-366.9-175.7-522.7L1480,853c110,165.3,174.4,356.8,186.7,555L1600,1412z M1160.3,607.7
		c-48.4-36.1-99.9-67.8-154-94.7l30.3-59.3c57.6,28.3,112.5,61.8,164,100L1160.3,607.7z"/>
	<path class="st0" d="M1433.3,1496.7c-105.2-104.5-232.4-184.2-372.3-233.3l20.7-63.3c149,52.3,284.5,137.1,396.7,248.3
		L1433.3,1496.7z"/>
	<path class="st0" d="M1708,1894.7c-12.3-33.3-26.3-64-41.7-95l59.7-29.7c16.4,32.6,31.2,65.9,44.3,100L1708,1894.7z"/>
	<path class="st0" d="M1519,2038.3l-21.3-63c79.9-26.9,154.6-67.1,221-119l41,52.7C1687.3,1965.4,1606,2009.1,1519,2038.3z"/>
	<path class="st0" d="M459.3,1233.3l-15.3-64.7c73.9-18.1,149.6-28.1,225.7-29.7l1.7,66.7C599.9,1207.1,528.8,1216.4,459.3,1233.3z"
		/>
	<path class="st0" d="M1006,1021.3L950,985c48.9-79.5,109.2-151.3,179-213.3l44,50.3C1107.9,879.9,1051.6,947.1,1006,1021.3z"/>
	<path class="st0" d="M1501.7,626l-22.7-62.7c50.2-18.8,101.8-33.5,154.3-44l12.3,66.7C1596.6,595.3,1548.5,608.7,1501.7,626z"/>
	<path class="st0" d="M841.7,1966.7c-54.5-126.4-83.6-262.3-85.7-400c1.1-53,8-105.8,20.7-157.3c2.3-11.7,5-23.7,7.3-36l66.7,13
		c-2.3,12.7-5,24.7-7.3,36.7c-11.6,47-18.1,95.2-19.3,143.7c1.5,129.3,28.5,257.1,79.3,376L841.7,1966.7z"/>
	<path class="st0" d="M1250,2083.3c-221,0-433-87.8-589.3-244.1s-244-368.2-244-589.2c0-17,0-33.3,1.7-50.3
		c10.3-170.6,72.8-333.8,179-467.7s251-231.8,414.7-280.7c106.9-31.8,219.1-41.8,330-29.4s218.1,46.9,315.4,101.4
		c120.1,67.3,221.6,163.3,295.5,279.5c73.9,116.1,117.9,248.8,128,386c10.1,137.3-13.9,274.9-69.9,400.7s-142.4,235.6-251.2,319.8
		C1613.5,2021.7,1434.4,2082.8,1250,2083.3z M1250,483.3c-74.2,0.2-148,11.5-219,33.3c-150.5,44.9-283.5,134.9-381.2,257.9
		s-155.2,273-164.8,429.7c0,15.7-1.7,30.7-1.7,45.7c0,203.3,80.8,398.3,224.5,542.1c143.8,143.8,338.8,224.6,542.1,224.6
		c84.2,0.1,167.8-13.8,247.3-41.3c80-26.8,154.8-67.1,221.3-119c126.4-97.8,219.1-232.8,265.1-385.9s42.9-316.8-8.7-468.1
		s-149.3-282.7-279.3-375.7C1565.7,533.5,1409.9,483.4,1250,483.3z"/>
	<path class="st0" d="M1331,864.3c-29.2,0-57.8-8.7-82.1-24.9c-24.3-16.2-43.2-39.3-54.4-66.3c-11.2-27-14.1-56.7-8.3-85.4
		c5.7-28.7,19.8-55,40.5-75.6s47-34.7,75.7-40.3c28.7-5.7,58.4-2.7,85.3,8.5c27,11.2,50,30.2,66.2,54.5s24.8,52.9,24.7,82.1
		c0,19.4-3.8,38.6-11.2,56.5c-7.4,17.9-18.3,34.2-32,47.8c-13.7,13.7-30,24.5-47.9,31.9C1369.6,860.6,1350.4,864.4,1331,864.3z
		 M1331,636c-16,0-31.7,4.8-45,13.7s-23.7,21.5-29.8,36.4c-6.1,14.8-7.7,31.1-4.6,46.8s10.8,30.1,22.2,41.5s25.8,19,41.5,22.2
		s32,1.5,46.8-4.6s27.5-16.5,36.4-29.8s13.7-29,13.7-45c0-21.5-8.5-42.1-23.7-57.3C1373.1,644.5,1352.5,636,1331,636z"/>
	<path class="st0" d="M876.3,1329.3c-29.2,0-57.8-8.7-82-24.9c-24.3-16.2-43.2-39.3-54.4-66.3s-14.1-56.7-8.4-85.3
		s19.8-55,40.4-75.6c20.7-20.7,47-34.7,75.6-40.4c28.6-5.7,58.3-2.8,85.3,8.4c27,11.2,50,30.1,66.3,54.4
		c16.2,24.3,24.9,52.8,24.9,82c-0.1,39.1-15.7,76.6-43.3,104.3C953,1313.7,915.5,1329.2,876.3,1329.3z M876.3,1100.7
		c-16,0-31.7,4.8-45,13.7c-13.3,8.9-23.7,21.5-29.8,36.3s-7.7,31.1-4.6,46.8c3.1,15.7,10.8,30.1,22.2,41.5
		c11.3,11.3,25.8,19,41.5,22.2c15.7,3.1,32,1.5,46.8-4.6s27.5-16.5,36.4-29.8s13.7-29,13.7-45c0.1-10.7-1.9-21.3-6-31.2
		c-4-9.9-10-18.9-17.5-26.5s-16.5-13.6-26.4-17.7s-20.5-6.2-31.2-6.2v0.5H876.3z"/>
	<path class="st0" d="M1609.3,1756.7c-29.2,0.1-57.8-8.5-82.2-24.7c-24.3-16.2-43.3-39.3-54.5-66.3s-14.2-56.7-8.5-85.4
		c5.7-28.7,19.8-55,40.4-75.7c20.7-20.7,47-34.7,75.7-40.4c28.7-5.7,58.4-2.7,85.4,8.5s50.1,30.2,66.3,54.5
		c16.2,24.3,24.8,52.9,24.7,82.2c0,39.1-15.5,76.5-43.2,104.2C1685.9,1741.1,1648.4,1756.7,1609.3,1756.7z M1609.3,1528.3
		c-16-0.1-31.7,4.6-45.1,13.5s-23.8,21.5-30,36.3s-7.8,31.1-4.7,46.8c3.1,15.7,10.8,30.2,22.1,41.6c11.3,11.4,25.7,19.1,41.5,22.3
		c15.7,3.2,32,1.6,46.8-4.6c14.8-6.1,27.5-16.5,36.4-29.8s13.7-29,13.7-45c0-21.4-8.5-42-23.6-57.2
		C1651.3,1537,1630.8,1528.4,1609.3,1528.3z"/>
</g>
</svg>
